# xmcd
#
# Track frame offsets:
#	150
#	17942
#	32570
#	48750
#	64390
#	80700
#	107730
#	129232
#	144832
#	159565
#	186375
#	198695
#	213150
#	230962
#	249040
#	262992
#	278255
#	289882
#	303800
#
# Disc length: 4279
#
# Revision: 1
# Processed by: cddbd v1.5.1PL0 Copyright (c) Steve Scherf et al.
# Submitted via: CDex 1.50beta9
# Normalized: r0:DSETVAR1
#
DISCID=0a10b513
DTITLE=Various Artist - The No. 1 Country Dance Album
DYEAR=1900
DGENRE=Country
TTITLE0=Tim McGraw - I Like It, I Love It (club mix)
TTITLE1=Delbert McClinton - Why Me?
TTITLE2=Boy Howdy - Bigger Fish to Fry (dance mix)
TTITLE3=The Groove Grass Boys - Macarena (club mix)
TTITLE4=Mark Knopfler - Cannibals
TTITLE5=Alabama - Dancin', Shaggin' on the Boulevard
TTITLE6=Chely Wright - Sea of Cowboy Hats
TTITLE7=T. Cane Homey - Crash Bam Boom
TTITLE8=Wynonna - Girls with Guitars
TTITLE9=Arrow - Hot Hot Hot (Caribbean Cowboy mix)
TTITLE10=Kentucky Headhunters - Singing the Blues
TTITLE11=Rednex - Cotton Eyed Joe
TTITLE12=Al Anderson - It Came From the South
TTITLE13=Bob Woodruff - That Was Then
TTITLE14=Ronnie McDowell - Smokey Places
TTITLE15=Billy Ray Cyrus - Achy Breaky Heart
TTITLE16=The Woolpackers - Hillbilly Rock Hillbilly Roll
TTITLE17=Scooter Lee - High Test Love
TTITLE18=Kimber Clayton - Jose Cuervo (tequila mix)
EXTD=
EXTT0=
EXTT1=
EXTT2=
EXTT3=
EXTT4=
EXTT5=
EXTT6=
EXTT7=
EXTT8=
EXTT9=
EXTT10=
EXTT11=
EXTT12=
EXTT13=
EXTT14=
EXTT15=
EXTT16=
EXTT17=
EXTT18=
PLAYORDER=
